<svg width="577" height="113" viewBox="0 0 577 113" fill="none" xmlns="http://www.w3.org/2000/svg">
<g clip-path="url(#clip0_2_510)">
<path fill-rule="evenodd" clip-rule="evenodd" d="M47.7148 89.4931C59.0335 89.7079 66.3574 88.415 67.4699 76.7698V66.4219H44.6091C34.1796 66.4219 28.8531 70.3007 28.8531 78.2818C29.738 88.6297 36.8471 89.7079 47.7148 89.4931ZM5.11598 37.0318C5.22766 12.4184 19.8668 0 49.2698 0C80.567 0 96.3187 12.2895 96.3187 37.0919V78.2818C96.3187 101.568 81.6753 112.998 48.1615 112.998C14.6521 112.998 0 101.568 0 78.9261C0 56.4991 15.0945 45.2835 45.0515 45.2835H67.4699V37.0919C67.4699 28.2517 61.4777 23.9347 49.2698 23.9347C38.4966 23.9347 31.8729 26.9115 31.7526 37.0318H5.11598ZM147.864 39.2483L170.944 48.0885C190.253 55.2062 198.685 63.4021 198.685 80.4339C198.685 102.865 185.369 112.998 152.306 112.998C119.527 112.998 106.172 101.538 105.936 75.9193H132.125C132.31 85.9278 136.674 88.634 152.306 88.634C165.618 88.634 170.278 86.9072 170.278 81.9502C170.278 80.0043 169.394 78.2818 167.619 76.9889C165.841 75.6916 161.4 73.5352 154.08 70.7346L133.44 62.3239C116.348 55.2062 108.135 48.0885 108.135 31.7011C108.135 10.3523 121.898 0 154.746 0C183.268 0 197.465 12.4227 197.572 37.0447H171.378C171.305 27.9725 167.263 24.3686 154.299 24.3686C140.764 24.3686 136.546 26.3101 136.546 30.8419C136.546 34.287 139.209 36.0181 147.864 39.2483ZM237.158 2.58981H208.305V110.412H237.158V2.58981ZM288.694 39.2483L311.778 48.0885C331.086 55.2062 339.514 63.4021 339.514 80.4339C339.514 102.865 326.202 112.998 293.135 112.998C260.36 112.998 247.01 101.546 246.774 75.9493H272.955C273.144 85.9321 277.517 88.634 293.135 88.634C306.447 88.634 311.104 86.9072 311.104 81.9502C311.104 80.0043 310.214 78.2818 308.449 76.9889C306.675 75.6916 302.233 73.5352 294.909 70.7346L274.269 62.3239C257.177 55.2062 248.964 48.0885 248.964 31.7011C248.964 10.3523 262.723 0 295.571 0C324.115 0 338.311 12.4399 338.402 37.0834H312.212C312.152 27.9854 308.114 24.3686 295.128 24.3686C281.589 24.3686 277.371 26.3101 277.371 30.8419C277.371 34.287 280.038 36.0181 288.694 39.2483ZM416.6 76.7715C415.491 88.4167 408.176 89.7097 396.853 89.4949C385.977 89.7097 378.872 88.6315 377.983 78.2835C377.983 70.3024 383.309 66.4236 393.747 66.4236H416.6V76.7715ZM398.408 0.00172424C368.979 0.00172424 354.336 12.4416 354.246 37.0851H380.882C380.985 26.9219 387.613 23.9365 398.408 23.9365C410.612 23.9365 416.6 28.2535 416.6 37.0937V45.2852H394.19C364.224 45.2852 349.134 56.5009 349.134 78.9278C349.134 101.57 363.786 113 397.291 113C430.809 113 445.453 101.57 445.453 78.2835V37.0937C445.453 12.2912 429.697 0.00172424 398.408 0.00172424ZM523.657 2.48084C533.73 2.48084 542.441 16.8408 545.886 37.0513H576.788V75.9602H545.882C543.665 88.98 539.254 99.5341 533.704 105.423C530.65 108.675 527.248 110.522 523.657 110.522H487.351C493.829 106.527 498.056 98.9929 500.534 93.0736C502.334 88.3829 503.403 84.5728 503.403 84.5728L503.67 83.4688C504.267 81.0977 504.787 78.5977 505.216 75.9602H474.306V37.0513H505.225C504.727 34.0057 504.125 31.102 503.403 28.4044C503.403 28.4044 499.031 9.67587 487.351 2.48084H523.657Z" fill="white"/>
</g>
<defs>
<clipPath id="clip0_2_510">
<rect width="576.3" height="113" fill="white"/>
</clipPath>
</defs>
</svg>
